<svg xmlns="http://www.w3.org/2000/svg" width="17.781" height="14.344" viewBox="0 0 17.781 14.344">
  <defs>
    <style>
      .cls-1 {
        fill: #171717;
        fill-rule: evenodd;
      }
    </style>
  </defs>
  <path id="g_" data-name="g+" class="cls-1" d="M37.862,508.28H31.491v2.227h3.887a4.582,4.582,0,0,1-4.342,3.341,4.778,4.778,0,0,1,0-9.546,4.433,4.433,0,0,1,3.235,1.417l1.541-1.758a6.648,6.648,0,0,0-4.776-2.045,7.162,7.162,0,1,0,6.826,8.591V508.28h0Zm4.137,0H40.7v-1.367H39.579v1.367h-1.3v1.172h1.3v1.366H40.7v-1.366H42v-1.172Z" transform="translate(-24.219 -501.906)"/>
</svg>
